<?xml version="1.0" encoding="UTF-8" standalone="no"?><!DOCTYPE svg PUBLIC "-//W3C//DTD SVG 1.1//EN" "http://www.w3.org/Graphics/SVG/1.1/DTD/svg11.dtd"><svg width="100%" height="100%" viewBox="0 0 635 606" version="1.1" xmlns="http://www.w3.org/2000/svg" xmlns:xlink="http://www.w3.org/1999/xlink" xml:space="preserve" xmlns:serif="http://www.serif.com/" style="fill-rule:evenodd;clip-rule:evenodd;stroke-linejoin:round;stroke-miterlimit:1.41421;"><path d="M-672,-97l1440,0l0,800l-1440,0l0,-800Zm1089.04,144.698c-12.937,-2.245 -27.282,-3.121 -43.082,-2.495c-110.238,4.374 -217.247,-16.558 -268.175,83.381c-0.487,-0.095 -0.975,-0.193 -1.464,-0.292c-74.395,-15.138 -84.218,218.615 26.389,329.599c21.426,35.539 49.023,62.647 81.822,74.555c4.484,1.628 8.925,3.036 13.327,4.232c14.042,11.49 28.474,20.223 42.964,25.483c50.784,18.438 74.695,6.61 92.554,-22.5c20.098,-3.958 40.916,-18.549 72.75,-52.017c51.963,-54.63 93.996,-121.559 119.513,-186.663c50.638,-81.657 54.364,-146.91 16.679,-186.533c-18.206,-45.876 -61.238,-73.825 -136.192,-68.625c-5.771,0.4 -11.463,1.035 -17.085,1.875Z" style="fill:#2e3b7f;"/><path d="M434.127,45.823c226.894,-15.742 161.271,272.273 0,441.821c-82.918,87.173 -91.095,46.282 -206.507,22.984c-208.604,-42.111 -214.922,-400.98 -123.299,-382.336c131,26.655 214.675,-74.482 329.806,-82.469Z" style="fill:#fff;fill-opacity:0.592157;"/><path d="M378.368,75.673c231.15,-27.463 289.408,104.623 118.243,301.42c-88.004,101.184 -173.055,195.661 -284.079,155.353c-111.024,-40.308 -162.441,-254.783 -116.678,-380.833c45.764,-126.05 165.224,-62.004 282.514,-75.94Z" style="fill:#fff;fill-opacity:0.168627;"/><path d="M373.96,45.203c171.506,-6.804 171.57,163.497 60.167,339.595c-71.693,113.327 -54.28,217.672 -165.304,177.363c-111.024,-40.308 -218.732,-284.498 -172.969,-410.548c45.764,-126.05 160.084,-101.727 278.106,-106.41Z" style="fill:#fff;fill-opacity:0.388235;"/><g><path d="M451.579,285.005l-122.625,0l2.079,12.886l81.057,81.058c0,0 39.489,-32.839 39.489,-93.944Z" style="fill:url(#_Linear1);fill-rule:nonzero;"/><circle cx="319.393" cy="285.005" r="166.271" style="fill:#2f4859;"/><circle cx="319.393" cy="285.005" r="138.421" style="fill:#ebf0f3;"/><circle cx="319.393" cy="285.005" r="132.185" style="fill:#31978c;"/><path d="M198.847,300.802c0,-73.16 59.026,-132.186 132.186,-132.186c39.905,0 75.237,17.459 99.762,45.309c-23.693,-36.58 -64.43,-61.105 -111.402,-61.105c-73.159,0 -132.185,59.026 -132.185,132.185c0,33.254 12.471,63.599 32.423,86.877c-12.886,-20.784 -20.784,-44.893 -20.784,-71.08Z" style="fill:#3ea69b;fill-rule:nonzero;"/><path d="M451.579,287.916l0,-6.235l-32.423,0c-0.832,-25.357 -10.808,-48.219 -27.019,-65.262l23.278,-23.278l-4.157,-4.157l-23.279,23.278c-17.042,-16.211 -39.905,-26.187 -65.261,-27.019l0,-32.423l-6.235,0l0,32.423c-25.356,0.832 -48.218,10.808 -65.261,27.019l-23.278,-23.278l-4.157,4.157l23.278,23.278c-16.211,17.043 -26.187,39.906 -27.019,65.262l-32.422,0l0,6.235l32.423,0c0.831,25.356 10.807,48.218 27.019,65.261l-23.278,23.278l4.157,4.157l23.278,-23.278c17.042,16.211 39.905,26.187 65.261,27.019l0,32.423l6.235,0l0,-32.423c25.357,-0.832 48.219,-10.808 65.261,-27.019l23.278,23.278l4.157,-4.157l-23.278,-23.278c16.212,-17.043 26.188,-39.906 27.019,-65.261l32.423,0Zm-38.658,-5.82l-31.175,0c-0.832,-14.965 -6.651,-28.266 -16.212,-38.658l22.031,-22.031c14.964,15.796 24.525,36.995 25.356,60.689Zm-83.551,-11.639c-2.078,-1.663 -4.572,-2.494 -7.066,-2.91l0,-38.658c13.301,0.832 25.356,5.82 34.501,14.133l-27.435,27.435Zm-12.886,-2.91c-2.494,0.415 -4.988,1.247 -7.066,2.909l-27.435,-27.434c9.145,-8.314 21.2,-13.718 34.501,-14.133l0,38.658Zm-11.639,7.482c-1.662,2.079 -2.494,4.573 -2.909,7.067l-38.659,0c0.832,-13.302 5.82,-25.357 14.133,-34.501l27.435,27.434Zm-2.91,12.887c0.415,2.493 1.247,4.987 2.909,7.066l-27.434,27.435c-8.314,-9.146 -13.718,-21.2 -14.133,-34.501l38.658,0Zm7.483,11.639c2.078,1.662 4.572,2.494 7.066,2.909l0,38.658c-13.301,-0.831 -25.357,-5.819 -34.501,-14.133l27.435,-27.434Zm12.886,2.909c2.494,-0.415 4.988,-1.247 7.066,-2.909l27.435,27.434c-9.145,8.314 -21.2,13.718 -34.501,14.133l0,-38.658Zm11.639,-7.482c1.247,-2.079 2.494,-4.573 2.909,-7.066l38.658,0c-0.831,13.301 -5.819,25.356 -14.133,34.501l-27.434,-27.435Zm2.909,-12.886c-0.415,-2.494 -1.247,-4.988 -2.909,-7.067l27.434,-27.434c8.314,9.145 13.718,21.199 14.133,34.501l-38.658,0Zm46.556,-65.262l-22.031,22.031c-10.392,-9.56 -24.109,-15.38 -38.658,-16.211l0,-31.176c23.278,0.831 44.478,10.392 60.689,25.356Zm-66.924,-25.356l0,31.176c-14.965,0.831 -28.266,6.651 -38.658,16.211l-22.031,-22.031c15.796,-14.964 36.996,-24.525 60.689,-25.356Zm-65.262,29.513l22.031,22.031c-9.56,10.392 -15.38,24.109 -16.211,38.659l-31.176,0c0.831,-23.279 10.392,-44.478 25.356,-60.69Zm-25.356,66.925l31.176,0c0.831,14.964 6.651,28.266 16.211,38.658l-22.031,22.031c-14.964,-15.796 -24.525,-36.996 -25.356,-60.689Zm29.513,65.261l22.031,-22.031c10.393,9.56 23.694,15.38 38.659,16.211l0,31.176c-23.278,-0.831 -44.478,-10.392 -60.69,-25.356Zm66.925,25.356l0,-31.175c14.964,-0.832 28.266,-6.651 38.658,-16.212l22.031,22.031c-15.796,14.964 -36.996,24.525 -60.689,25.356Zm65.261,-29.513l-22.031,-22.031c9.56,-10.392 15.38,-24.109 16.211,-38.658l31.176,0c-0.831,23.278 -10.392,44.478 -25.356,60.689Z" style="fill:#44c4a1;fill-rule:nonzero;"/><path d="M451.579,285.005l-122.625,0l2.079,12.886l81.057,81.058c0,0 39.489,-32.839 39.489,-93.944Z" style="fill:url(#_Linear2);fill-rule:nonzero;"/><g><path d="M371.218,261.142c-9.668,9.668 -25.344,9.668 -35.013,-0.001c-9.668,-9.667 -9.668,-25.343 0,-35.012c9.668,-9.668 25.345,-9.667 35.013,0c9.669,9.669 9.669,25.345 0,35.013Z" style="fill:#ebebeb;"/><path d="M335.388,260.282l6.237,-3.404c0.891,-0.485 1.444,-1.417 1.444,-2.431l0,-2.778c0,0 -1.99,-2.38 -2.75,-5.689c-0.63,-0.407 -1.051,-1.112 -1.051,-1.913l0,-3.041c0,-0.669 0.297,-1.267 0.76,-1.685l0,-4.397c0,0 -0.903,-6.841 8.362,-6.841c9.265,0 8.363,6.841 8.363,6.841l0,4.397c0.463,0.418 0.76,1.016 0.76,1.685l0,3.041c0,1.022 -0.686,1.883 -1.617,2.169c-0.519,1.614 -1.267,3.152 -2.257,4.55c-0.25,0.352 -0.484,0.651 -0.687,0.883l0,2.849c0,1.049 0.593,2.009 1.531,2.478l7.261,3.63c1.928,0.964 3.193,2.867 3.339,5.005c-9.328,4.823 -21.064,3.324 -28.878,-4.49l-0.817,-0.859Z" style="fill:#3083c9;"/><path d="M353.573,256.264c-0.4,-0.502 -0.621,-1.107 -0.621,-1.746l0,-2.849c0.203,-0.232 0.437,-0.531 0.687,-0.883c0.99,-1.399 1.738,-2.936 2.257,-4.55c0.931,-0.286 1.617,-1.147 1.617,-2.169l0,-3.041c0,-0.669 -0.297,-1.267 -0.76,-1.685l0,-4.397c0,0 0.115,-0.894 -0.171,-2.033c1.116,-0.541 2.472,-0.889 4.134,-0.903c8.334,0.068 8.516,8.516 8.516,8.516c0.106,5.487 3.383,10.8 4.968,13.058c0.542,0.771 0.243,1.859 -0.623,2.231c-1.481,0.636 -3.399,0.452 -3.399,0.452l-5.233,0c-0.473,0 -0.787,0.498 -0.576,0.921c0.233,0.469 0.564,0.902 0.971,1.105l6.084,2.635l-0.206,0.216c-1.855,1.855 -3.931,3.354 -6.135,4.489c-0.146,-2.138 -1.411,-4.041 -3.338,-5.005l-6.14,-3.07c0.126,-0.094 0.261,-0.197 0.403,-0.309c0.402,-0.317 0.187,-0.958 -0.343,-0.983l-2.092,0Z" style="fill:#cb465f;"/></g><g><path d="M297.681,388.393c-9.668,9.668 -25.344,9.668 -35.013,-0.001c-9.668,-9.667 -9.668,-25.344 0,-35.012c9.668,-9.668 25.345,-9.668 35.013,0c9.669,9.669 9.669,25.344 0,35.013Z" style="fill:#ebebeb;"/><path d="M261.851,387.532l6.238,-3.403c0.89,-0.485 1.443,-1.418 1.443,-2.431l0,-2.779c0,0 -1.99,-2.38 -2.749,-5.688c-0.631,-0.408 -1.052,-1.112 -1.052,-1.914l0,-3.04c0,-0.669 0.297,-1.268 0.76,-1.686l0,-4.396c0,0 -0.903,-6.842 8.363,-6.842c9.264,0 8.362,6.842 8.362,6.842l0,4.396c0.463,0.418 0.76,1.017 0.76,1.686l0,3.04c0,1.023 -0.686,1.884 -1.617,2.17c-0.519,1.614 -1.267,3.152 -2.257,4.549c-0.249,0.353 -0.484,0.652 -0.687,0.883l0,2.85c0,1.049 0.593,2.008 1.531,2.477l7.261,3.631c1.928,0.964 3.193,2.867 3.339,5.005c-9.327,4.823 -21.064,3.324 -28.878,-4.49l-0.817,-0.86Z" style="fill:#3083c9;"/><path d="M280.037,383.515c-0.401,-0.502 -0.622,-1.107 -0.622,-1.746l0,-2.85c0.203,-0.231 0.438,-0.53 0.687,-0.883c0.99,-1.398 1.738,-2.936 2.257,-4.549c0.931,-0.286 1.617,-1.147 1.617,-2.17l0,-3.04c0,-0.669 -0.297,-1.268 -0.76,-1.686l0,-4.396c0,0 0.115,-0.894 -0.171,-2.033c1.116,-0.542 2.472,-0.89 4.134,-0.904c8.334,0.069 8.516,8.516 8.516,8.516c0.106,5.488 3.383,10.801 4.968,13.058c0.542,0.772 0.243,1.86 -0.623,2.232c-1.48,0.636 -3.399,0.452 -3.399,0.452l-5.233,0c-0.472,0 -0.786,0.498 -0.576,0.921c0.233,0.469 0.564,0.902 0.971,1.105l6.084,2.634l-0.206,0.217c-1.855,1.855 -3.931,3.354 -6.135,4.489c-0.146,-2.138 -1.411,-4.041 -3.338,-5.006l-6.14,-3.07c0.126,-0.093 0.261,-0.196 0.403,-0.308c0.402,-0.317 0.188,-0.958 -0.343,-0.983l-2.091,0Z" style="fill:#cb465f;"/></g><g><path d="M245.406,261.142c-9.668,9.668 -25.344,9.668 -35.014,-0.001c-9.668,-9.667 -9.668,-25.343 0,-35.012c9.669,-9.668 25.345,-9.667 35.013,0c9.669,9.669 9.669,25.345 0.001,35.013Z" style="fill:#ebebeb;"/><path d="M209.575,260.282l6.238,-3.404c0.89,-0.485 1.443,-1.417 1.443,-2.431l0,-2.778c0,0 -1.99,-2.38 -2.749,-5.689c-0.631,-0.407 -1.052,-1.112 -1.052,-1.913l0,-3.041c0,-0.669 0.298,-1.267 0.76,-1.685l0,-4.397c0,0 -0.903,-6.841 8.363,-6.841c9.264,0 8.362,6.841 8.362,6.841l0,4.397c0.463,0.418 0.76,1.016 0.76,1.685l0,3.041c0,1.022 -0.686,1.883 -1.617,2.169c-0.519,1.614 -1.267,3.152 -2.257,4.55c-0.249,0.352 -0.483,0.651 -0.687,0.883l0,2.849c0,1.049 0.593,2.009 1.531,2.478l7.261,3.63c1.928,0.964 3.193,2.867 3.339,5.005c-9.327,4.823 -21.064,3.324 -28.878,-4.49l-0.817,-0.859Z" style="fill:#3083c9;"/><path d="M227.761,256.264c-0.401,-0.502 -0.622,-1.107 -0.622,-1.746l0,-2.849c0.204,-0.232 0.438,-0.531 0.687,-0.883c0.99,-1.399 1.738,-2.936 2.257,-4.55c0.931,-0.286 1.617,-1.147 1.617,-2.169l0,-3.041c0,-0.669 -0.297,-1.267 -0.76,-1.685l0,-4.397c0,0 0.115,-0.894 -0.17,-2.033c1.116,-0.541 2.471,-0.889 4.134,-0.903c8.334,0.068 8.515,8.516 8.515,8.516c0.106,5.487 3.383,10.8 4.968,13.058c0.542,0.771 0.243,1.859 -0.623,2.231c-1.48,0.636 -3.399,0.452 -3.399,0.452l-5.233,0c-0.472,0 -0.786,0.498 -0.576,0.921c0.233,0.469 0.564,0.902 0.971,1.105l6.084,2.635l-0.205,0.216c-1.856,1.855 -3.932,3.354 -6.136,4.489c-0.146,-2.138 -1.411,-4.041 -3.338,-5.005l-6.14,-3.07c0.126,-0.094 0.261,-0.197 0.403,-0.309c0.402,-0.317 0.188,-0.958 -0.343,-0.983l-2.091,0Z" style="fill:#cb465f;"/></g></g><defs><linearGradient id="_Linear1" x1="0" y1="0" x2="1" y2="0" gradientUnits="userSpaceOnUse" gradientTransform="matrix(66.6328,-66.6328,66.6328,66.6328,367.873,334.744)"><stop offset="0" style="stop-color:#fff;stop-opacity:1"/><stop offset="1" style="stop-color:#000;stop-opacity:1"/></linearGradient><linearGradient id="_Linear2" x1="0" y1="0" x2="1" y2="0" gradientUnits="userSpaceOnUse" gradientTransform="matrix(66.6328,-66.6328,66.6328,66.6328,367.873,334.744)"><stop offset="0" style="stop-color:#44c4a1;stop-opacity:1"/><stop offset="1" style="stop-color:#44c4a1;stop-opacity:1"/></linearGradient></defs></svg>